<?xml version="1.0" standalone="no"?>
<!DOCTYPE svg PUBLIC "-//W3C//DTD SVG 20010904//EN"
 "http://www.w3.org/TR/2001/REC-SVG-20010904/DTD/svg10.dtd">
<svg version="1.0" xmlns="http://www.w3.org/2000/svg"
 width="1920.000000pt" height="1920.000000pt" viewBox="0 0 1920.000000 1920.000000"
 preserveAspectRatio="xMidYMid meet">
<metadata>
Created by potrace 1.16, written by Peter Selinger 2001-2019
</metadata>
<g transform="translate(0.000000,1920.000000) scale(0.100000,-0.100000)"
fill="#d7b695" stroke="none">
<path d="M6118 18295 c-94 -26 -179 -103 -226 -203 -22 -47 -27 -75 -30 -162
-4 -118 11 -174 70 -257 61 -85 135 -130 471 -284 414 -191 625 -282 847 -364
521 -193 1356 -376 1878 -411 l103 -7 -4 -1411 c-4 -1504 -3 -1485 -52 -1679
-64 -251 -203 -448 -440 -622 -81 -59 -198 -131 -270 -164 -189 -90 -253 -118
-369 -165 -72 -29 -167 -67 -211 -84 -667 -258 -909 -365 -1139 -504 -403
-244 -718 -563 -885 -897 -97 -193 -138 -353 -148 -576 -7 -174 12 -311 67
-475 70 -211 208 -418 405 -609 129 -125 353 -296 484 -370 558 -314 1191
-516 2451 -780 1007 -212 1526 -350 1980 -526 598 -233 883 -412 1020 -645 97
-164 97 -356 -1 -504 -95 -143 -353 -319 -664 -454 -161 -70 -491 -183 -649
-223 -48 -12 -76 -34 -60 -48 5 -4 86 -36 179 -71 94 -34 224 -88 290 -119
109 -52 372 -194 420 -227 28 -20 51 -18 146 15 262 89 640 335 835 544 143
154 270 370 316 537 28 106 36 351 14 476 -45 263 -180 499 -421 739 -214 213
-448 363 -858 549 -409 185 -1074 383 -1857 552 -1059 229 -1475 329 -1860
451 -382 120 -547 188 -850 351 -278 149 -470 315 -548 472 -60 122 -77 194
-76 325 0 114 8 156 51 265 94 236 395 510 763 695 161 80 405 187 595 260
836 320 1072 433 1360 649 339 254 587 642 680 1061 48 221 47 168 55 1730 4
809 8 1471 9 1471 0 1 38 4 84 8 291 24 550 64 897 137 537 114 845 209 1335
414 345 145 702 314 817 388 74 48 164 146 195 213 67 148 27 344 -94 454 -73
67 -143 92 -258 94 -122 1 -202 -25 -395 -129 -242 -131 -548 -276 -745 -353
-162 -63 -274 -100 -601 -201 -296 -91 -779 -181 -1134 -213 -192 -17 -764
-17 -945 0 -401 38 -779 110 -1140 217 -653 195 -971 321 -1315 520 -63 37
-141 80 -174 97 -121 61 -287 84 -398 53z"/>
<path d="M10810 12000 c-372 -24 -590 -55 -855 -121 -530 -132 -663 -206 -726
-401 -54 -168 15 -339 173 -431 109 -62 195 -58 454 23 250 79 560 144 839
176 204 24 590 23 770 0 356 -48 680 -143 895 -263 123 -69 265 -211 313 -313
61 -130 72 -246 37 -384 -32 -126 -81 -207 -195 -322 -124 -125 -289 -237
-535 -361 -194 -99 -340 -162 -505 -218 -100 -34 -165 -53 -495 -146 -63 -17
-118 -35 -122 -38 -18 -15 16 -30 142 -60 270 -66 460 -132 825 -285 164 -69
225 -62 440 46 482 243 830 529 1038 855 139 217 197 410 197 658 0 432 -221
828 -620 1111 -350 248 -808 402 -1365 459 -186 19 -526 26 -705 15z"/>
<path d="M7166 8091 c-438 -221 -766 -573 -872 -936 -23 -77 -27 -115 -32
-263 -7 -254 16 -366 114 -552 149 -282 396 -497 809 -703 172 -86 308 -141
550 -221 325 -109 507 -160 1235 -345 910 -231 1229 -335 1635 -536 381 -188
544 -356 545 -561 0 -82 -23 -137 -92 -221 -147 -179 -544 -395 -851 -463 -31
-7 -62 -19 -69 -27 -12 -15 -14 -14 86 -130 72 -84 141 -188 237 -357 40 -70
79 -131 87 -134 37 -14 347 102 522 195 448 237 724 540 822 901 30 111 30
332 0 454 -65 264 -205 466 -488 705 -254 215 -657 413 -1204 592 -296 97
-494 153 -940 266 -58 15 -215 56 -350 92 -135 36 -312 83 -395 104 -82 22
-177 48 -210 58 -458 147 -640 214 -799 293 -360 180 -520 382 -485 610 47
307 510 643 1191 865 170 55 198 67 186 78 -3 4 -104 31 -224 61 -121 30 -356
95 -524 143 -168 49 -315 91 -328 94 -16 4 -64 -15 -156 -62z"/>
<path d="M7689 4767 c-225 -187 -345 -414 -379 -721 -25 -225 47 -483 190
-676 94 -127 265 -275 438 -379 118 -70 320 -168 532 -256 332 -138 506 -236
633 -354 257 -241 371 -643 327 -1151 -9 -101 -41 -323 -57 -388 l-5 -23 63
24 c169 64 280 138 406 271 189 200 267 404 280 731 10 248 -34 447 -147 663
-189 359 -566 647 -1150 877 -438 173 -656 322 -721 494 -26 70 -22 166 9 228
75 147 285 308 518 398 58 22 94 42 94 51 0 8 -1 14 -3 14 -8 0 -532 135 -730
189 -125 33 -229 61 -230 61 -2 0 -32 -24 -68 -53z"/>
</g>
</svg>
